<svg width="120" height="100" viewBox="0 0 120 100" fill="none" xmlns="http://www.w3.org/2000/svg">
    <g id="triangles" clip-path="url(#clip0_511_15)">
        <g id="lightGroup">
        <path id="light1" opacity="0.75" d="M44 50.268C45.3333 51.0378 45.3333 52.9623 44 53.7321L9.5 73.6506C8.16666 74.4204 6.5 73.4582 6.5 71.9186L6.5 32.0814C6.5 30.5418 8.16667 29.5796 9.5 30.3494L44 50.268Z" fill="#00D1FF"/>
        </g>
    <g id="darkGroup">
        <path id="dark1" opacity="0.75" d="M67 50.268C68.3333 51.0378 68.3333 52.9623 67 53.7321L32.5 73.6506C31.1667 74.4204 29.5 73.4582 29.5 71.9186L29.5 32.0814C29.5 30.5418 31.1667 29.5796 32.5 30.3494L67 50.268Z" fill="#1003A4"/>
        <path id="dark2" opacity="0.75" d="M44 50.268C45.3333 51.0378 45.3333 52.9623 44 53.7321L9.5 73.6506C8.16666 74.4204 6.5 73.4582 6.5 71.9186L6.5 32.0814C6.5 30.5418 8.16667 29.5796 9.5 30.3494L44 50.268Z" fill="#1003A4"/>
        </g>
    </g>
    <defs>
        <clipPath id="clip0_511_15">
            <rect width="120" height="100" fill="white"/>
        </clipPath>
    </defs>
</svg>
